<mxfile host="app.diagrams.net" agent="Mozilla/5.0 (Windows NT 10.0; Win64; x64) AppleWebKit/537.36 (KHTML, like Gecko) Chrome/129.0.0.0 Safari/537.36" version="24.7.17">
  <diagram id="C5RBs43oDa-KdzZeNtuy" name="Page-1">
    <mxGraphModel dx="3452" dy="1413" grid="1" gridSize="10" guides="1" tooltips="1" connect="1" arrows="1" fold="1" page="1" pageScale="1" pageWidth="827" pageHeight="1169" math="0" shadow="0">
      <root>
        <mxCell id="WIyWlLk6GJQsqaUBKTNV-0" />
        <mxCell id="WIyWlLk6GJQsqaUBKTNV-1" parent="WIyWlLk6GJQsqaUBKTNV-0" />
        <mxCell id="1B1CjAOwjdvQzBThnjsc-3" value="" style="edgeStyle=orthogonalEdgeStyle;rounded=0;orthogonalLoop=1;jettySize=auto;html=1;" edge="1" parent="WIyWlLk6GJQsqaUBKTNV-1" source="1B1CjAOwjdvQzBThnjsc-1" target="1B1CjAOwjdvQzBThnjsc-2">
          <mxGeometry relative="1" as="geometry" />
        </mxCell>
        <mxCell id="1B1CjAOwjdvQzBThnjsc-1" value="start" style="ellipse;whiteSpace=wrap;html=1;" vertex="1" parent="WIyWlLk6GJQsqaUBKTNV-1">
          <mxGeometry x="374" y="30" width="40" height="40" as="geometry" />
        </mxCell>
        <mxCell id="1B1CjAOwjdvQzBThnjsc-5" style="edgeStyle=orthogonalEdgeStyle;rounded=0;orthogonalLoop=1;jettySize=auto;html=1;exitX=0.5;exitY=1;exitDx=0;exitDy=0;entryX=0.5;entryY=0;entryDx=0;entryDy=0;" edge="1" parent="WIyWlLk6GJQsqaUBKTNV-1" source="1B1CjAOwjdvQzBThnjsc-2" target="1B1CjAOwjdvQzBThnjsc-4">
          <mxGeometry relative="1" as="geometry" />
        </mxCell>
        <mxCell id="1B1CjAOwjdvQzBThnjsc-2" value="Insert Card" style="whiteSpace=wrap;html=1;" vertex="1" parent="WIyWlLk6GJQsqaUBKTNV-1">
          <mxGeometry x="334" y="140" width="120" height="60" as="geometry" />
        </mxCell>
        <mxCell id="1B1CjAOwjdvQzBThnjsc-7" value="" style="edgeStyle=orthogonalEdgeStyle;rounded=0;orthogonalLoop=1;jettySize=auto;html=1;" edge="1" parent="WIyWlLk6GJQsqaUBKTNV-1" source="1B1CjAOwjdvQzBThnjsc-4" target="1B1CjAOwjdvQzBThnjsc-6">
          <mxGeometry relative="1" as="geometry" />
        </mxCell>
        <mxCell id="1B1CjAOwjdvQzBThnjsc-4" value="Insert Pin" style="shape=parallelogram;perimeter=parallelogramPerimeter;whiteSpace=wrap;html=1;fixedSize=1;" vertex="1" parent="WIyWlLk6GJQsqaUBKTNV-1">
          <mxGeometry x="334" y="250" width="120" height="60" as="geometry" />
        </mxCell>
        <mxCell id="1B1CjAOwjdvQzBThnjsc-18" style="edgeStyle=orthogonalEdgeStyle;rounded=0;orthogonalLoop=1;jettySize=auto;html=1;exitX=1;exitY=0.5;exitDx=0;exitDy=0;entryX=0;entryY=0.5;entryDx=0;entryDy=0;" edge="1" parent="WIyWlLk6GJQsqaUBKTNV-1" source="1B1CjAOwjdvQzBThnjsc-6" target="1B1CjAOwjdvQzBThnjsc-17">
          <mxGeometry relative="1" as="geometry" />
        </mxCell>
        <mxCell id="1B1CjAOwjdvQzBThnjsc-19" value="No" style="edgeLabel;html=1;align=center;verticalAlign=middle;resizable=0;points=[];" vertex="1" connectable="0" parent="1B1CjAOwjdvQzBThnjsc-18">
          <mxGeometry x="-0.0957" y="2" relative="1" as="geometry">
            <mxPoint as="offset" />
          </mxGeometry>
        </mxCell>
        <mxCell id="1B1CjAOwjdvQzBThnjsc-33" value="" style="edgeStyle=orthogonalEdgeStyle;rounded=0;orthogonalLoop=1;jettySize=auto;html=1;" edge="1" parent="WIyWlLk6GJQsqaUBKTNV-1" source="1B1CjAOwjdvQzBThnjsc-6" target="1B1CjAOwjdvQzBThnjsc-32">
          <mxGeometry relative="1" as="geometry" />
        </mxCell>
        <mxCell id="1B1CjAOwjdvQzBThnjsc-66" value="yes" style="edgeLabel;html=1;align=center;verticalAlign=middle;resizable=0;points=[];" vertex="1" connectable="0" parent="1B1CjAOwjdvQzBThnjsc-33">
          <mxGeometry x="-0.2352" relative="1" as="geometry">
            <mxPoint as="offset" />
          </mxGeometry>
        </mxCell>
        <mxCell id="1B1CjAOwjdvQzBThnjsc-6" value="PIN Correct?" style="rhombus;whiteSpace=wrap;html=1;" vertex="1" parent="WIyWlLk6GJQsqaUBKTNV-1">
          <mxGeometry x="354" y="380" width="80" height="80" as="geometry" />
        </mxCell>
        <mxCell id="1B1CjAOwjdvQzBThnjsc-21" value="" style="edgeStyle=orthogonalEdgeStyle;rounded=0;orthogonalLoop=1;jettySize=auto;html=1;" edge="1" parent="WIyWlLk6GJQsqaUBKTNV-1" source="1B1CjAOwjdvQzBThnjsc-17" target="1B1CjAOwjdvQzBThnjsc-20">
          <mxGeometry relative="1" as="geometry" />
        </mxCell>
        <mxCell id="1B1CjAOwjdvQzBThnjsc-24" value="No" style="edgeLabel;html=1;align=center;verticalAlign=middle;resizable=0;points=[];" vertex="1" connectable="0" parent="1B1CjAOwjdvQzBThnjsc-21">
          <mxGeometry x="-0.3486" y="-1" relative="1" as="geometry">
            <mxPoint as="offset" />
          </mxGeometry>
        </mxCell>
        <mxCell id="1B1CjAOwjdvQzBThnjsc-28" value="" style="edgeStyle=orthogonalEdgeStyle;rounded=0;orthogonalLoop=1;jettySize=auto;html=1;" edge="1" parent="WIyWlLk6GJQsqaUBKTNV-1" source="1B1CjAOwjdvQzBThnjsc-17" target="1B1CjAOwjdvQzBThnjsc-27">
          <mxGeometry relative="1" as="geometry" />
        </mxCell>
        <mxCell id="1B1CjAOwjdvQzBThnjsc-29" value="yes" style="edgeLabel;html=1;align=center;verticalAlign=middle;resizable=0;points=[];" vertex="1" connectable="0" parent="1B1CjAOwjdvQzBThnjsc-28">
          <mxGeometry x="-0.51" y="-1" relative="1" as="geometry">
            <mxPoint as="offset" />
          </mxGeometry>
        </mxCell>
        <mxCell id="1B1CjAOwjdvQzBThnjsc-17" value="Incorrect 3 times?" style="rhombus;whiteSpace=wrap;html=1;" vertex="1" parent="WIyWlLk6GJQsqaUBKTNV-1">
          <mxGeometry x="480" y="380" width="80" height="80" as="geometry" />
        </mxCell>
        <mxCell id="1B1CjAOwjdvQzBThnjsc-20" value="Pin Incorrect Try again" style="shape=parallelogram;perimeter=parallelogramPerimeter;whiteSpace=wrap;html=1;fixedSize=1;" vertex="1" parent="WIyWlLk6GJQsqaUBKTNV-1">
          <mxGeometry x="620" y="390" width="120" height="60" as="geometry" />
        </mxCell>
        <mxCell id="1B1CjAOwjdvQzBThnjsc-22" style="edgeStyle=orthogonalEdgeStyle;rounded=0;orthogonalLoop=1;jettySize=auto;html=1;entryX=1;entryY=0.5;entryDx=0;entryDy=0;exitX=0.5;exitY=0;exitDx=0;exitDy=0;" edge="1" parent="WIyWlLk6GJQsqaUBKTNV-1" source="1B1CjAOwjdvQzBThnjsc-20" target="1B1CjAOwjdvQzBThnjsc-4">
          <mxGeometry relative="1" as="geometry">
            <mxPoint x="681" y="380" as="sourcePoint" />
            <mxPoint x="454.00000000000006" y="280.02" as="targetPoint" />
            <Array as="points">
              <mxPoint x="681" y="390" />
              <mxPoint x="681" y="280" />
            </Array>
          </mxGeometry>
        </mxCell>
        <mxCell id="1B1CjAOwjdvQzBThnjsc-27" value="Contact your&lt;div&gt;bank to get&lt;/div&gt;&lt;div&gt;your card back&lt;/div&gt;" style="shape=parallelogram;perimeter=parallelogramPerimeter;whiteSpace=wrap;html=1;fixedSize=1;" vertex="1" parent="WIyWlLk6GJQsqaUBKTNV-1">
          <mxGeometry x="460" y="500" width="120" height="60" as="geometry" />
        </mxCell>
        <mxCell id="1B1CjAOwjdvQzBThnjsc-38" style="edgeStyle=orthogonalEdgeStyle;rounded=0;orthogonalLoop=1;jettySize=auto;html=1;exitX=0.5;exitY=1;exitDx=0;exitDy=0;entryX=0.5;entryY=0;entryDx=0;entryDy=0;" edge="1" parent="WIyWlLk6GJQsqaUBKTNV-1" source="1B1CjAOwjdvQzBThnjsc-32">
          <mxGeometry relative="1" as="geometry">
            <mxPoint x="394" y="680" as="targetPoint" />
          </mxGeometry>
        </mxCell>
        <mxCell id="1B1CjAOwjdvQzBThnjsc-41" value="Balance Check" style="edgeLabel;html=1;align=center;verticalAlign=middle;resizable=0;points=[];" vertex="1" connectable="0" parent="1B1CjAOwjdvQzBThnjsc-38">
          <mxGeometry x="-0.28" y="2" relative="1" as="geometry">
            <mxPoint as="offset" />
          </mxGeometry>
        </mxCell>
        <mxCell id="1B1CjAOwjdvQzBThnjsc-40" style="edgeStyle=orthogonalEdgeStyle;rounded=0;orthogonalLoop=1;jettySize=auto;html=1;exitX=0;exitY=0.75;exitDx=0;exitDy=0;entryX=0.5;entryY=0;entryDx=0;entryDy=0;" edge="1" parent="WIyWlLk6GJQsqaUBKTNV-1" source="1B1CjAOwjdvQzBThnjsc-32" target="1B1CjAOwjdvQzBThnjsc-36">
          <mxGeometry relative="1" as="geometry" />
        </mxCell>
        <mxCell id="1B1CjAOwjdvQzBThnjsc-42" value="Withdraw" style="edgeLabel;html=1;align=center;verticalAlign=middle;resizable=0;points=[];" vertex="1" connectable="0" parent="1B1CjAOwjdvQzBThnjsc-40">
          <mxGeometry x="-0.3481" y="-1" relative="1" as="geometry">
            <mxPoint as="offset" />
          </mxGeometry>
        </mxCell>
        <mxCell id="1B1CjAOwjdvQzBThnjsc-32" value="withdraw&lt;div&gt;deposit&lt;/div&gt;&lt;div&gt;balance check&lt;/div&gt;" style="shape=trapezoid;perimeter=trapezoidPerimeter;whiteSpace=wrap;html=1;fixedSize=1;" vertex="1" parent="WIyWlLk6GJQsqaUBKTNV-1">
          <mxGeometry x="334" y="550" width="120" height="60" as="geometry" />
        </mxCell>
        <mxCell id="1B1CjAOwjdvQzBThnjsc-35" value="Enter Deposit&lt;div&gt;Amount&lt;/div&gt;" style="shape=parallelogram;perimeter=parallelogramPerimeter;whiteSpace=wrap;html=1;fixedSize=1;" vertex="1" parent="WIyWlLk6GJQsqaUBKTNV-1">
          <mxGeometry x="570" y="680" width="120" height="60" as="geometry" />
        </mxCell>
        <mxCell id="1B1CjAOwjdvQzBThnjsc-46" value="" style="edgeStyle=orthogonalEdgeStyle;rounded=0;orthogonalLoop=1;jettySize=auto;html=1;" edge="1" parent="WIyWlLk6GJQsqaUBKTNV-1" source="1B1CjAOwjdvQzBThnjsc-36" target="1B1CjAOwjdvQzBThnjsc-45">
          <mxGeometry relative="1" as="geometry" />
        </mxCell>
        <mxCell id="1B1CjAOwjdvQzBThnjsc-36" value="Enter Withdraw&lt;div&gt;Amount&lt;/div&gt;" style="shape=parallelogram;perimeter=parallelogramPerimeter;whiteSpace=wrap;html=1;fixedSize=1;" vertex="1" parent="WIyWlLk6GJQsqaUBKTNV-1">
          <mxGeometry x="100" y="680" width="120" height="60" as="geometry" />
        </mxCell>
        <mxCell id="1B1CjAOwjdvQzBThnjsc-39" style="edgeStyle=orthogonalEdgeStyle;rounded=0;orthogonalLoop=1;jettySize=auto;html=1;exitX=1;exitY=0.75;exitDx=0;exitDy=0;entryX=0.58;entryY=0.03;entryDx=0;entryDy=0;entryPerimeter=0;" edge="1" parent="WIyWlLk6GJQsqaUBKTNV-1" source="1B1CjAOwjdvQzBThnjsc-32" target="1B1CjAOwjdvQzBThnjsc-35">
          <mxGeometry relative="1" as="geometry" />
        </mxCell>
        <mxCell id="1B1CjAOwjdvQzBThnjsc-44" value="Deposit" style="edgeLabel;html=1;align=center;verticalAlign=middle;resizable=0;points=[];" vertex="1" connectable="0" parent="1B1CjAOwjdvQzBThnjsc-39">
          <mxGeometry x="-0.3106" y="2" relative="1" as="geometry">
            <mxPoint as="offset" />
          </mxGeometry>
        </mxCell>
        <mxCell id="1B1CjAOwjdvQzBThnjsc-59" style="edgeStyle=orthogonalEdgeStyle;rounded=0;orthogonalLoop=1;jettySize=auto;html=1;exitX=0;exitY=0.5;exitDx=0;exitDy=0;" edge="1" parent="WIyWlLk6GJQsqaUBKTNV-1" source="1B1CjAOwjdvQzBThnjsc-45" target="1B1CjAOwjdvQzBThnjsc-58">
          <mxGeometry relative="1" as="geometry" />
        </mxCell>
        <mxCell id="1B1CjAOwjdvQzBThnjsc-65" value="No" style="edgeLabel;html=1;align=center;verticalAlign=middle;resizable=0;points=[];" vertex="1" connectable="0" parent="1B1CjAOwjdvQzBThnjsc-59">
          <mxGeometry x="-0.0629" y="-1" relative="1" as="geometry">
            <mxPoint as="offset" />
          </mxGeometry>
        </mxCell>
        <mxCell id="1B1CjAOwjdvQzBThnjsc-70" style="edgeStyle=orthogonalEdgeStyle;rounded=0;orthogonalLoop=1;jettySize=auto;html=1;exitX=0.5;exitY=1;exitDx=0;exitDy=0;entryX=0.5;entryY=0;entryDx=0;entryDy=0;" edge="1" parent="WIyWlLk6GJQsqaUBKTNV-1" source="1B1CjAOwjdvQzBThnjsc-45" target="1B1CjAOwjdvQzBThnjsc-69">
          <mxGeometry relative="1" as="geometry" />
        </mxCell>
        <mxCell id="1B1CjAOwjdvQzBThnjsc-71" value="Yes" style="edgeLabel;html=1;align=center;verticalAlign=middle;resizable=0;points=[];" vertex="1" connectable="0" parent="1B1CjAOwjdvQzBThnjsc-70">
          <mxGeometry x="-0.0519" y="-1" relative="1" as="geometry">
            <mxPoint as="offset" />
          </mxGeometry>
        </mxCell>
        <mxCell id="1B1CjAOwjdvQzBThnjsc-45" value="Is there&lt;div&gt;sufficient&lt;/div&gt;&lt;div&gt;funds?&lt;/div&gt;" style="rhombus;whiteSpace=wrap;html=1;" vertex="1" parent="WIyWlLk6GJQsqaUBKTNV-1">
          <mxGeometry x="120" y="810" width="80" height="80" as="geometry" />
        </mxCell>
        <mxCell id="1B1CjAOwjdvQzBThnjsc-50" style="edgeStyle=orthogonalEdgeStyle;rounded=0;orthogonalLoop=1;jettySize=auto;html=1;exitX=0.5;exitY=1;exitDx=0;exitDy=0;entryX=0.5;entryY=0;entryDx=0;entryDy=0;" edge="1" parent="WIyWlLk6GJQsqaUBKTNV-1" source="1B1CjAOwjdvQzBThnjsc-47" target="1B1CjAOwjdvQzBThnjsc-49">
          <mxGeometry relative="1" as="geometry" />
        </mxCell>
        <mxCell id="1B1CjAOwjdvQzBThnjsc-47" value="Pull from&lt;div&gt;Data&lt;/div&gt;" style="shape=parallelogram;html=1;strokeWidth=2;perimeter=parallelogramPerimeter;whiteSpace=wrap;rounded=1;arcSize=12;size=0.23;" vertex="1" parent="WIyWlLk6GJQsqaUBKTNV-1">
          <mxGeometry x="344" y="680" width="100" height="60" as="geometry" />
        </mxCell>
        <mxCell id="1B1CjAOwjdvQzBThnjsc-79" style="edgeStyle=orthogonalEdgeStyle;rounded=0;orthogonalLoop=1;jettySize=auto;html=1;exitX=0.5;exitY=1;exitDx=0;exitDy=0;entryX=0.5;entryY=0;entryDx=0;entryDy=0;" edge="1" parent="WIyWlLk6GJQsqaUBKTNV-1" source="1B1CjAOwjdvQzBThnjsc-49" target="1B1CjAOwjdvQzBThnjsc-78">
          <mxGeometry relative="1" as="geometry" />
        </mxCell>
        <mxCell id="1B1CjAOwjdvQzBThnjsc-49" value="Your current&lt;div&gt;Balance is:&lt;/div&gt;" style="shape=parallelogram;perimeter=parallelogramPerimeter;whiteSpace=wrap;html=1;fixedSize=1;" vertex="1" parent="WIyWlLk6GJQsqaUBKTNV-1">
          <mxGeometry x="334" y="780" width="120" height="60" as="geometry" />
        </mxCell>
        <mxCell id="1B1CjAOwjdvQzBThnjsc-56" style="edgeStyle=orthogonalEdgeStyle;rounded=0;orthogonalLoop=1;jettySize=auto;html=1;exitX=0.5;exitY=1;exitDx=0;exitDy=0;entryX=0.5;entryY=0;entryDx=0;entryDy=0;" edge="1" parent="WIyWlLk6GJQsqaUBKTNV-1" source="1B1CjAOwjdvQzBThnjsc-51" target="1B1CjAOwjdvQzBThnjsc-55">
          <mxGeometry relative="1" as="geometry" />
        </mxCell>
        <mxCell id="1B1CjAOwjdvQzBThnjsc-51" value="Update Data&lt;div&gt;and push it&lt;/div&gt;" style="shape=parallelogram;html=1;strokeWidth=2;perimeter=parallelogramPerimeter;whiteSpace=wrap;rounded=1;arcSize=12;size=0.23;" vertex="1" parent="WIyWlLk6GJQsqaUBKTNV-1">
          <mxGeometry x="570" y="780" width="100" height="60" as="geometry" />
        </mxCell>
        <mxCell id="1B1CjAOwjdvQzBThnjsc-52" style="edgeStyle=orthogonalEdgeStyle;rounded=0;orthogonalLoop=1;jettySize=auto;html=1;exitX=0.5;exitY=1;exitDx=0;exitDy=0;entryX=0.6;entryY=0.03;entryDx=0;entryDy=0;entryPerimeter=0;" edge="1" parent="WIyWlLk6GJQsqaUBKTNV-1" source="1B1CjAOwjdvQzBThnjsc-35" target="1B1CjAOwjdvQzBThnjsc-51">
          <mxGeometry relative="1" as="geometry" />
        </mxCell>
        <mxCell id="1B1CjAOwjdvQzBThnjsc-80" style="edgeStyle=orthogonalEdgeStyle;rounded=0;orthogonalLoop=1;jettySize=auto;html=1;exitX=0.5;exitY=1;exitDx=0;exitDy=0;entryX=1;entryY=0.5;entryDx=0;entryDy=0;" edge="1" parent="WIyWlLk6GJQsqaUBKTNV-1" source="1B1CjAOwjdvQzBThnjsc-55" target="1B1CjAOwjdvQzBThnjsc-78">
          <mxGeometry relative="1" as="geometry">
            <Array as="points">
              <mxPoint x="620" y="1060" />
            </Array>
          </mxGeometry>
        </mxCell>
        <mxCell id="1B1CjAOwjdvQzBThnjsc-55" value="Amount&amp;nbsp;&lt;div&gt;Deposited&lt;div&gt;you now have&lt;/div&gt;&lt;div&gt;&amp;nbsp;x balance&lt;/div&gt;&lt;/div&gt;" style="shape=parallelogram;perimeter=parallelogramPerimeter;whiteSpace=wrap;html=1;fixedSize=1;" vertex="1" parent="WIyWlLk6GJQsqaUBKTNV-1">
          <mxGeometry x="560" y="880" width="120" height="60" as="geometry" />
        </mxCell>
        <mxCell id="1B1CjAOwjdvQzBThnjsc-61" style="edgeStyle=orthogonalEdgeStyle;rounded=0;orthogonalLoop=1;jettySize=auto;html=1;exitX=0.5;exitY=1;exitDx=0;exitDy=0;entryX=0.5;entryY=0;entryDx=0;entryDy=0;" edge="1" parent="WIyWlLk6GJQsqaUBKTNV-1" source="1B1CjAOwjdvQzBThnjsc-58" target="1B1CjAOwjdvQzBThnjsc-60">
          <mxGeometry relative="1" as="geometry" />
        </mxCell>
        <mxCell id="1B1CjAOwjdvQzBThnjsc-58" value="Insufficient Funds" style="shape=parallelogram;perimeter=parallelogramPerimeter;whiteSpace=wrap;html=1;fixedSize=1;" vertex="1" parent="WIyWlLk6GJQsqaUBKTNV-1">
          <mxGeometry x="-60" y="820" width="120" height="60" as="geometry" />
        </mxCell>
        <mxCell id="1B1CjAOwjdvQzBThnjsc-63" style="edgeStyle=orthogonalEdgeStyle;rounded=0;orthogonalLoop=1;jettySize=auto;html=1;exitX=0;exitY=0.5;exitDx=0;exitDy=0;entryX=0;entryY=0.5;entryDx=0;entryDy=0;" edge="1" parent="WIyWlLk6GJQsqaUBKTNV-1" source="1B1CjAOwjdvQzBThnjsc-60" target="1B1CjAOwjdvQzBThnjsc-36">
          <mxGeometry relative="1" as="geometry">
            <Array as="points">
              <mxPoint x="-70" y="950" />
              <mxPoint x="-70" y="710" />
            </Array>
          </mxGeometry>
        </mxCell>
        <mxCell id="1B1CjAOwjdvQzBThnjsc-64" value="Select Diff Amount" style="edgeLabel;html=1;align=center;verticalAlign=middle;resizable=0;points=[];" vertex="1" connectable="0" parent="1B1CjAOwjdvQzBThnjsc-63">
          <mxGeometry x="0.5491" y="-2" relative="1" as="geometry">
            <mxPoint as="offset" />
          </mxGeometry>
        </mxCell>
        <mxCell id="1B1CjAOwjdvQzBThnjsc-67" style="edgeStyle=orthogonalEdgeStyle;rounded=0;orthogonalLoop=1;jettySize=auto;html=1;exitX=0.5;exitY=1;exitDx=0;exitDy=0;entryX=0;entryY=0;entryDx=0;entryDy=0;" edge="1" parent="WIyWlLk6GJQsqaUBKTNV-1" source="1B1CjAOwjdvQzBThnjsc-60" target="1B1CjAOwjdvQzBThnjsc-32">
          <mxGeometry relative="1" as="geometry">
            <Array as="points">
              <mxPoint y="1000" />
              <mxPoint x="-130" y="1000" />
              <mxPoint x="-130" y="559" />
            </Array>
          </mxGeometry>
        </mxCell>
        <mxCell id="1B1CjAOwjdvQzBThnjsc-68" value="Cancel" style="edgeLabel;html=1;align=center;verticalAlign=middle;resizable=0;points=[];" vertex="1" connectable="0" parent="1B1CjAOwjdvQzBThnjsc-67">
          <mxGeometry x="-0.3524" relative="1" as="geometry">
            <mxPoint as="offset" />
          </mxGeometry>
        </mxCell>
        <mxCell id="1B1CjAOwjdvQzBThnjsc-60" value="select diff&lt;div&gt;amount&lt;/div&gt;&lt;div&gt;&lt;br&gt;&lt;/div&gt;&lt;div&gt;cancel&lt;/div&gt;" style="verticalLabelPosition=middle;verticalAlign=middle;html=1;shape=trapezoid;perimeter=trapezoidPerimeter;whiteSpace=wrap;size=0.23;arcSize=10;flipV=1;labelPosition=center;align=center;" vertex="1" parent="WIyWlLk6GJQsqaUBKTNV-1">
          <mxGeometry x="-50" y="920" width="100" height="60" as="geometry" />
        </mxCell>
        <mxCell id="1B1CjAOwjdvQzBThnjsc-73" style="edgeStyle=orthogonalEdgeStyle;rounded=0;orthogonalLoop=1;jettySize=auto;html=1;exitX=0.5;exitY=1;exitDx=0;exitDy=0;entryX=0.5;entryY=0;entryDx=0;entryDy=0;" edge="1" parent="WIyWlLk6GJQsqaUBKTNV-1" source="1B1CjAOwjdvQzBThnjsc-69" target="1B1CjAOwjdvQzBThnjsc-72">
          <mxGeometry relative="1" as="geometry" />
        </mxCell>
        <mxCell id="1B1CjAOwjdvQzBThnjsc-69" value="x$&amp;nbsp;&lt;span style=&quot;background-color: initial;&quot;&gt;withdrawn&lt;/span&gt;" style="shape=parallelogram;perimeter=parallelogramPerimeter;whiteSpace=wrap;html=1;fixedSize=1;" vertex="1" parent="WIyWlLk6GJQsqaUBKTNV-1">
          <mxGeometry x="100" y="920" width="120" height="60" as="geometry" />
        </mxCell>
        <mxCell id="1B1CjAOwjdvQzBThnjsc-81" style="edgeStyle=orthogonalEdgeStyle;rounded=0;orthogonalLoop=1;jettySize=auto;html=1;exitX=1;exitY=0.5;exitDx=0;exitDy=0;entryX=0;entryY=0.5;entryDx=0;entryDy=0;" edge="1" parent="WIyWlLk6GJQsqaUBKTNV-1" source="1B1CjAOwjdvQzBThnjsc-72" target="1B1CjAOwjdvQzBThnjsc-78">
          <mxGeometry relative="1" as="geometry" />
        </mxCell>
        <mxCell id="1B1CjAOwjdvQzBThnjsc-72" value="Update&lt;div&gt;Balance&lt;/div&gt;" style="shape=parallelogram;html=1;strokeWidth=2;perimeter=parallelogramPerimeter;whiteSpace=wrap;rounded=1;arcSize=12;size=0.23;" vertex="1" parent="WIyWlLk6GJQsqaUBKTNV-1">
          <mxGeometry x="110" y="1030" width="100" height="60" as="geometry" />
        </mxCell>
        <mxCell id="1B1CjAOwjdvQzBThnjsc-83" value="" style="edgeStyle=orthogonalEdgeStyle;rounded=0;orthogonalLoop=1;jettySize=auto;html=1;" edge="1" parent="WIyWlLk6GJQsqaUBKTNV-1" source="1B1CjAOwjdvQzBThnjsc-78" target="1B1CjAOwjdvQzBThnjsc-82">
          <mxGeometry relative="1" as="geometry" />
        </mxCell>
        <mxCell id="1B1CjAOwjdvQzBThnjsc-78" value="Please take back&lt;div&gt;your card&lt;/div&gt;" style="shape=parallelogram;perimeter=parallelogramPerimeter;whiteSpace=wrap;html=1;fixedSize=1;" vertex="1" parent="WIyWlLk6GJQsqaUBKTNV-1">
          <mxGeometry x="334" y="1030" width="120" height="60" as="geometry" />
        </mxCell>
        <mxCell id="1B1CjAOwjdvQzBThnjsc-85" style="edgeStyle=orthogonalEdgeStyle;rounded=0;orthogonalLoop=1;jettySize=auto;html=1;exitX=0.5;exitY=1;exitDx=0;exitDy=0;entryX=0.5;entryY=0;entryDx=0;entryDy=0;" edge="1" parent="WIyWlLk6GJQsqaUBKTNV-1" source="1B1CjAOwjdvQzBThnjsc-82" target="1B1CjAOwjdvQzBThnjsc-84">
          <mxGeometry relative="1" as="geometry" />
        </mxCell>
        <mxCell id="1B1CjAOwjdvQzBThnjsc-82" value="Took the card" style="whiteSpace=wrap;html=1;" vertex="1" parent="WIyWlLk6GJQsqaUBKTNV-1">
          <mxGeometry x="334" y="1140" width="120" height="60" as="geometry" />
        </mxCell>
        <mxCell id="1B1CjAOwjdvQzBThnjsc-86" style="edgeStyle=orthogonalEdgeStyle;rounded=0;orthogonalLoop=1;jettySize=auto;html=1;exitX=0;exitY=0.5;exitDx=0;exitDy=0;entryX=0;entryY=0.5;entryDx=0;entryDy=0;" edge="1" parent="WIyWlLk6GJQsqaUBKTNV-1" source="1B1CjAOwjdvQzBThnjsc-84" target="1B1CjAOwjdvQzBThnjsc-2">
          <mxGeometry relative="1" as="geometry">
            <Array as="points">
              <mxPoint x="-230" y="1260" />
              <mxPoint x="-230" y="170" />
            </Array>
          </mxGeometry>
        </mxCell>
        <mxCell id="1B1CjAOwjdvQzBThnjsc-84" value="Finish" style="ellipse;whiteSpace=wrap;html=1;" vertex="1" parent="WIyWlLk6GJQsqaUBKTNV-1">
          <mxGeometry x="374" y="1240" width="40" height="40" as="geometry" />
        </mxCell>
      </root>
    </mxGraphModel>
  </diagram>
</mxfile>
